<svg xmlns="http://www.w3.org/2000/svg" width="1536" height="1024" viewBox="0 0 1536 1024"><g fill="#FFFFFF" stroke="none" fill-rule="evenodd"><path d="M 895 529 L 896 540 L 902 548 L 923 555 L 1039 554 L 1068 548 L 1083 539 L 1098 518 L 1119 460 L 1121 438 L 1114 429 L 1092 423 L 969 423 L 945 429 L 936 434 L 921 451 L 913 469 Z M 973 459 L 982 454 L 1058 454 L 1061 455 L 1063 458 L 1063 463 L 1044 516 L 1039 521 L 1028 524 L 1025 523 L 1023 524 L 959 524 L 956 523 L 952 519 L 952 516 L 969 466 Z M 688 554 L 744 555 L 754 524 L 827 521 L 853 516 L 874 508 L 891 493 L 900 478 L 908 452 L 906 434 L 895 426 L 880 423 L 733 423 Z M 763 494 L 766 489 L 769 478 L 771 475 L 771 473 L 778 454 L 849 454 L 854 458 L 853 467 L 847 482 L 843 486 L 838 489 L 836 489 L 832 491 L 823 492 L 822 493 L 810 493 L 809 494 L 780 494 L 779 495 L 764 495 Z M 708 423 L 658 423 L 631 473 L 605 554 L 606 555 L 663 554 Z M 463 600 L 536 553 L 639 423 L 589 423 L 509 530 L 479 424 L 411 424 Z" /></g></svg>